<svg width="42" height="42" viewBox="0 0 42 42" fill="none" xmlns="http://www.w3.org/2000/svg">
<path d="M22.5963 30.0337C22.9499 30.458 23.5804 30.5153 24.0047 30.1618C24.429 29.8082 24.4863 29.1776 24.1327 28.7534L22.5963 30.0337ZM15.9988 20.5547L15.2306 19.9145C14.9215 20.2853 14.9215 20.824 15.2306 21.1948L15.9988 20.5547ZM24.1327 12.3559C24.4863 11.9317 24.429 11.3011 24.0047 10.9475C23.5804 10.594 22.9499 10.6513 22.5963 11.0756L24.1327 12.3559ZM24.1327 28.7534L16.767 19.9145L15.2306 21.1948L22.5963 30.0337L24.1327 28.7534ZM16.767 21.1948L24.1327 12.3559L22.5963 11.0756L15.2306 19.9145L16.767 21.1948ZM21 2C31.4934 2 40 10.5066 40 21H42C42 9.40202 32.598 -4.76837e-07 21 0V2ZM40 21C40 31.4934 31.4934 40 21 40L21 42C32.598 42 42 32.598 42 21H40ZM21 40C10.5066 40 2 31.4934 2 21L0 21C5.36442e-07 32.598 9.40202 42 21 42L21 40ZM2 21C2 10.5066 10.5066 2 21 2V0C9.40202 5.36442e-07 -4.76837e-07 9.40202 0 21L2 21Z" fill="black"/>
</svg>
