<svg width="42" height="42" viewBox="0 0 42 42" fill="none" xmlns="http://www.w3.org/2000/svg">
<path d="M19.267 11.0776C18.9134 10.6533 18.2828 10.596 17.8586 10.9496C17.4343 11.3031 17.377 11.9337 17.7305 12.358L19.267 11.0776ZM25.8645 20.5567L26.6327 21.1969C26.9418 20.826 26.9418 20.2873 26.6327 19.9165L25.8645 20.5567ZM17.7305 28.7554C17.377 29.1797 17.4343 29.8102 17.8586 30.1638C18.2828 30.5174 18.9134 30.46 19.267 30.0358L17.7305 28.7554ZM17.7305 12.358L25.0963 21.1969L26.6327 19.9165L19.267 11.0776L17.7305 12.358ZM25.0963 19.9165L17.7305 28.7554L19.267 30.0358L26.6327 21.1969L25.0963 19.9165ZM21 2C31.4934 2 40 10.5066 40 21L42 21C42 9.40202 32.598 -5.06964e-07 21 0L21 2ZM40 21C40 31.4934 31.4934 40 21 40L21 42C32.598 42 42 32.598 42 21L40 21ZM21 40C10.5066 40 2 31.4934 2 21L0 21C5.06964e-07 32.598 9.40202 42 21 42L21 40ZM2 21C2 10.5066 10.5066 2 21 2L21 0C9.40202 5.06964e-07 -5.06964e-07 9.40202 0 21L2 21Z" fill="black"/>
</svg>
